<?xml version="1.0" encoding="UTF-8"?>
<svg width="14px" height="14px" fill="currentColor" viewBox="0 0 14 14" version="1.1" xmlns="http://www.w3.org/2000/svg" xmlns:xlink="http://www.w3.org/1999/xlink">
    <title>关于</title>
    <g id="组件展示" stroke="none" stroke-width="1"  fill-rule="evenodd">
        <g id="icon_编辑器" transform="translate(-202.000000, -380.000000)" >
            <g id="关于" transform="translate(201.000000, 379.000000)">
                <path d="M8.00009399,1 C4.1340284,1 1,4.1340284 1,8.00009399 C1,11.8659032 4.1340284,14.9998633 8.00009399,14.9998633 C11.8661083,14.9998633 15,11.8659716 15,8.00009399 C15,4.1340284 11.8661083,1 8.00009399,1 Z M8.37887006,3.79770315 C8.55516738,3.53722198 8.8348232,3.37539962 9.10858306,3.37539962 C9.25070099,3.37539962 9.38461586,3.41846566 9.49604069,3.49989807 C9.82768337,3.74342627 9.87380846,4.27113904 9.59892067,4.67648958 C9.42241827,4.93710746 9.14271118,5.09892982 8.86893423,5.09892982 C8.72661122,5.09892982 8.59269635,5.05579542 8.4814766,4.97408958 C8.150039,4.72996324 8.10403353,4.20238719 8.37887006,3.79770315 Z M9.71253298,11.0667035 C9.69105122,11.0877239 9.1828378,11.5837523 8.73349838,11.9548551 C8.38996127,12.2390226 8.09056687,12.4310766 8.07795466,12.4391601 L8.05919016,12.4495677 C8.04403161,12.4565061 7.69068501,12.6242757 7.3513178,12.6242757 C6.93027891,12.6242757 6.68321315,12.3711943 6.67326694,11.9298187 C6.65470753,11.1316786 7.1275453,9.4364489 7.54470481,7.9407073 C7.60966276,7.70806524 7.6722794,7.48381423 7.72988878,7.27354258 C7.78756651,7.06258735 7.79277888,6.95623817 7.7892413,6.90731036 C7.61820761,6.96184358 7.1877523,7.32681116 6.81591466,7.73829691 L6.69837172,7.8685375 L6.15850817,7.38669347 L6.25516751,7.25711938 C6.40610371,7.054709 6.79790212,6.6273982 7.25831568,6.27960576 C7.6963759,5.9484245 8.15265374,5.72538687 8.51027276,5.66757241 C8.5896544,5.65475514 8.66460982,5.6483465 8.73331041,5.6483465 C9.02803933,5.6483465 9.18145355,5.76891432 9.25828883,5.87018787 C9.43993523,6.10956326 9.35701602,6.43206294 9.34695018,6.46805385 C9.17003763,7.12554579 9.00823238,7.70639044 8.86529414,8.21880792 C8.70400158,8.79753345 8.56468636,9.29733874 8.46267795,9.69853649 C8.2287029,10.6185091 8.15793447,11.0697796 8.15719961,11.0743255 C8.11761987,11.2620388 8.12274678,11.3510932 8.12956558,11.3879727 C8.22015806,11.3672771 8.40153102,11.2438211 8.52162033,11.1324305 L9.33211633,10.4175172 L9.83752705,10.9446318 L9.71253298,11.0667035 Z" id="形状"></path>
            </g>
        </g>
    </g>
</svg>