<?xml version="1.0" encoding="UTF-8"?>
<svg width="16px" height="16px" fill="currentColor" viewBox="0 0 16 16" version="1.1" xmlns="http://www.w3.org/2000/svg" xmlns:xlink="http://www.w3.org/1999/xlink">
    <title>置顶</title>
    <g id="组件展示" stroke="none" stroke-width="1" fill-rule="evenodd">
        <g id="icon_编辑器" transform="translate(-170.000000, -267.000000)" fill-rule="nonzero">
            <g id="置顶" transform="translate(170.000000, 267.000000)">
                <path d="M16,4.925 C16.0018132,4.68214286 15.8717172,4.45892857 15.6591659,4.33571429 L8.36096116,0.0964285714 C8.13924818,-0.0321428571 7.86256505,-0.0321428571 7.64085208,0.0964285714 L0.342647323,4.33571429 C0.130096043,4.45892857 1.13686838e-13,4.68392857 1.13686838e-13,4.925 C1.13686838e-13,5.16607143 0.130096043,5.39107143 0.342647323,5.51428571 L4.59916996,7.98571429 L5.31927904,6.80714286 L2.077872,4.92321429 L8,1.48392857 L13.9221089,4.92321429 L10.6568815,6.82142857 L11.3769905,8 L15.6573336,5.51428571 C15.8698849,5.39107143 16,5.16607143 16,4.925 Z M10.052907,12.3447277 L8.66976744,13.721321 L8.66976744,7 L7.33023256,7 L7.33023256,13.7230591 L5.94709302,12.3447277 L5,13.2885284 L7.5255814,15.8053302 C7.65639535,15.9356895 7.82732558,16 8,16 C8.17093023,16 8.34360465,15.9356895 8.4744186,15.8053302 L11,13.2885284 L10.052907,12.3447277 Z" id="形状备份" transform="translate(8.000009, 8.000000) scale(1, -1) translate(-8.000009, -8.000000) "></path>
            </g>
        </g>
    </g>
</svg>