<?xml version="1.0" encoding="UTF-8"?>
<svg width="16px" height="16px" fill="currentColor" viewBox="0 0 16 16" version="1.1" xmlns="http://www.w3.org/2000/svg" xmlns:xlink="http://www.w3.org/1999/xlink">
    <title>上移</title>
    <g id="组件展示" stroke="none" stroke-width="1" fill-rule="evenodd">
        <g id="icon_编辑器" transform="translate(-74.000000, -267.000000)" fill-rule="nonzero">
            <g id="上移" transform="translate(74.000000, 267.000000)">
                <path d="M2.31877643,11.1132444 C2.51565143,11.0330414 2.74690143,11.1118374 2.83596393,11.2891282 C2.92502643,11.4664191 2.83752643,11.6746655 2.64065143,11.7548685 L2.64065143,11.7548685 L1.03127643,12.4077492 L8.00002643,15.280987 L14.9687764,12.4077492 L13.3562764,11.7562756 C13.1609639,11.6760726 13.0719014,11.4678262 13.1609639,11.2905353 C13.2500264,11.1146515 13.4812764,11.0344485 13.6781514,11.1146515 L13.6781514,11.1146515 L15.6422139,11.9096463 C15.8625264,11.9982917 15.9984773,12.1882462 15.9984773,12.4049351 C16.0000264,12.6216239 15.8640889,12.8129855 15.6453389,12.903038 L15.6453389,12.903038 L8.25158893,15.9507525 C8.17190143,15.9831152 8.08596393,16 8.00002643,16 C7.91408893,16 7.82815143,15.9831152 7.74846393,15.9507525 L7.74846393,15.9507525 L0.353151428,12.903038 C0.134401428,12.8129855 -0.00153607156,12.6216239 1.3101631e-05,12.4049351 C0.00158892844,12.1882462 0.137526428,11.9982917 0.357838928,11.9096463 L0.357838928,11.9096463 Z M2.31877643,6.67999262 C2.51565143,6.5997896 2.74690143,6.67858555 2.83596393,6.85587642 C2.92502643,7.03316729 2.83752643,7.24141371 2.64065143,7.32161673 L2.64065143,7.32161673 L1.03127643,7.9744974 L8.00002643,10.8477352 L14.9687764,7.9744974 L13.3562764,7.3230238 C13.1609639,7.24282078 13.0719014,7.03457436 13.1609639,6.85728349 C13.2500264,6.68139969 13.4812764,6.60119667 13.6781514,6.68139969 L13.6781514,6.68139969 L15.6422139,7.47639447 C15.8625264,7.56503991 15.9969014,7.75499442 15.9984773,7.97168326 C16.0000264,8.18837211 15.8640889,8.37973368 15.6453389,8.46978619 L15.6453389,8.46978619 L8.25158893,11.5175007 C8.17190143,11.5498633 8.08596393,11.5667482 8.00002643,11.5667482 C7.91408893,11.5667482 7.82815143,11.5498633 7.74846393,11.5175007 L7.74846393,11.5175007 L0.353151428,8.46978619 C0.134401428,8.37973368 -0.00153607156,8.18837211 1.3101631e-05,7.97168326 C0.00158892844,7.75499442 0.137526428,7.56503991 0.357838928,7.47639447 L0.357838928,7.47639447 Z M7.75158893,0.0474897331 C7.90975117,-0.015829911 8.09030169,-0.015829911 8.24846393,0.0474897331 L8.24846393,0.0474897331 L15.6406514,3.04314265 C15.8609639,3.13178809 15.9969014,3.3217426 15.9984773,3.53843144 C16.0000264,3.75512029 15.8640889,3.94648186 15.6453389,4.03653437 L15.6453389,4.03653437 L8.25158893,7.08424889 C8.17190143,7.11661151 8.08596393,7.13349636 8.00002643,7.13349636 C7.91408893,7.13349636 7.82815143,7.11661151 7.74846393,7.08424889 L7.74846393,7.08424889 L0.353151428,4.03653437 C0.134401428,3.94507479 -0.00153607156,3.75512029 1.3101631e-05,3.53843144 C0.00158892844,3.3217426 0.137526428,3.13178809 0.357838928,3.04314265 L0.357838928,3.04314265 Z" id="形状结合"></path>
            </g>
        </g>
    </g>
</svg>