<?xml version="1.0" encoding="UTF-8"?>
<svg width="16px" height="16px" fill="currentColor" viewBox="0 0 16 16" version="1.1" xmlns="http://www.w3.org/2000/svg" xmlns:xlink="http://www.w3.org/1999/xlink">
    <title>下移</title>
    <g id="组件展示" stroke="none" stroke-width="1" fill-rule="evenodd">
        <g id="icon_编辑器" transform="translate(-138.000000, -267.000000)">
            <g id="下移" transform="translate(138.000000, 267.000000)">
                <path d="M13.9835694,10.4997842 L14,10.5026584 L15.6423113,11.5027857 C15.8626238,11.6002485 15.998638,11.8090975 15.998638,12.04734 C16.0001238,12.2855825 15.8641863,12.4959785 15.6454363,12.5949884 L15.6454363,12.5949884 L8.25168628,15.945854 C8.17199878,15.9814356 8.08606128,16 8.00012378,16 C7.91418628,16 7.82824878,15.9814356 7.74856128,15.945854 L7.74856128,15.945854 L0.353248776,12.5949884 C0.134498776,12.4959785 -0.00143872383,12.2855825 4.70826523e-05,12.04734 C0.00168627617,11.8090975 0.137623776,11.6002485 0.357936276,11.5027857 L0.357936276,11.5027857 L2,10.5026584 C2.13125,10.4438713 4.13125,11.2763185 8,13 C11.86875,11.2763185 13.86875,10.4438713 14,10.5026584 Z M2.31887378,6.03139042 C2.51574878,5.95118741 2.74699878,6.02998335 2.83606128,6.20727422 C2.92512378,6.3845651 2.83762378,6.59281152 2.64074878,6.67301453 L2.64074878,6.67301453 L1.03137378,7.32589521 L8.00012378,10.199133 L14.9688738,7.32589521 L13.3563738,6.6744216 C13.1610613,6.59421859 13.0719988,6.38597217 13.1610613,6.2086813 C13.2501238,6.03279749 13.4813738,5.95259448 13.6782488,6.03279749 L13.6782488,6.03279749 L15.6423113,6.82779228 C15.8626238,6.91643772 15.9969988,7.10639222 15.9985746,7.32308107 C16.0001238,7.53976991 15.8641863,7.73113149 15.6454363,7.82118399 L15.6454363,7.82118399 L8.25168628,10.8688985 C8.17199878,10.9012611 8.08606128,10.918146 8.00012378,10.918146 C7.91418628,10.918146 7.82824878,10.9012611 7.74856128,10.8688985 L7.74856128,10.8688985 L0.353248776,7.82118399 C0.134498776,7.73113149 -0.00143872383,7.53976991 0.000110449363,7.32308107 C0.00168627617,7.10639222 0.137623776,6.91643772 0.357936276,6.82779228 L0.357936276,6.82779228 Z M8.15127114,0.0170963039 L8.24849687,0.0474897331 L15.6406844,3.04314265 C15.8609969,3.13178809 15.9969344,3.3217426 15.9985233,3.53843144 C15.9998381,3.72416474 15.9001553,3.89129024 15.7338923,3.99195936 L15.6453719,4.03653437 L8.25162187,7.08424889 C8.17193437,7.11661151 8.08599687,7.13349636 8.00005937,7.13349636 C7.9427677,7.13349636 7.88547603,7.12599198 7.83003622,7.11140014 L7.74849687,7.08424889 L0.353184366,4.03653437 C0.134434366,3.94507479 -0.00150313431,3.75512029 3.29372513e-05,3.53843144 C0.00139674758,3.35269815 0.101462155,3.1866064 0.268763773,3.08711873 L0.357871866,3.04314265 L7.75162187,0.0474897331 C7.87815166,-0.00316598221 8.01900995,-0.0132971253 8.15127114,0.0170963039 Z M8.00115906,0.8 L1.00003294,3.52672702 L8.00003294,6.3 L15.0000329,3.52564456 L8.00115906,0.8 Z" id="形状结合"></path>
            </g>
        </g>
    </g>
</svg>