<?xml version="1.0" encoding="UTF-8"?>
<svg width="16px" height="16px" viewBox="0 0 16 16" version="1.1" xmlns="http://www.w3.org/2000/svg" xmlns:xlink="http://www.w3.org/1999/xlink">
    <title>icon/icon_回收站</title>
    <g id="icon/icon_回收站" stroke="none" stroke-width="1" fill="none" fill-rule="evenodd">
        <rect fill="none" x="0" y="0" width="16" height="16"></rect>
        <path d="M12.0000112,3.14286484 L12.0000112,2.28572969 C12.0000112,1.57685517 11.3325014,1 10.5115194,1 L5.5,1 C4.67298646,1 3.99998877,1.57685517 3.99998877,2.28572969 L3.99998877,3.14286484 L1.50001123,3.14286484 C1.22350964,3.14286484 1,3.33444454 1,3.57143242 C1,3.80842031 1.22350964,4 1.50001123,4 L14.5,4 C14.7764904,4 15,3.80843378 15,3.57143242 C15,3.33443106 14.7764904,3.14286484 14.5,3.14286484 L12.0000112,3.14286484 Z M3.50098672,5 C3.36849099,5 3.24099568,5.05159323 3.14699384,5.14948299 C3.052992,5.24844864 3,5.37841658 3,5.51843171 L3,13.4210518 C3,14.291582 3.6739891,15 4.50099458,15 L11.5019931,15 C12.3290143,15 13,14.2915986 13,13.4210518 L13,5.52631056 C13,5.23631588 12.7760026,5.00105934 12.5,5 L3.50098672,5 Z M6.49998428,13 C6.22350462,13 6,12.793684 6,12.5384671 L6,7.46156191 C6,7.20631595 6.22350462,7 6.49998428,7 C6.77649538,7 7,7.20631595 7,7.46154739 L7,12.5384526 C7,12.793684 6.77649538,13 6.49998428,13 Z M10,12.5384671 C10,12.793684 9.77649186,13 9.5,13 C9.22350814,13 9,12.793684 9,12.5384671 L9,7.46156191 C9,7.20631595 9.22350814,7 9.5,7 C9.77649186,7 10,7.20631595 10,7.46154739 L10,12.5384526 L10,12.5384671 Z" id="形状" fill="#619CC2"></path>
    </g>
</svg>