<?xml version="1.0" encoding="UTF-8"?>
<svg width="16px" height="16px" viewBox="0 0 16 16" version="1.1" xmlns="http://www.w3.org/2000/svg" xmlns:xlink="http://www.w3.org/1999/xlink">
    <title>全屏</title>
    <g id="组件" stroke="none" stroke-width="1" fill="none" fill-rule="evenodd" stroke-linecap="round" stroke-linejoin="round">
        <g id="顶部工具栏" transform="translate(-980.000000, -12.000000)" stroke="#619CC2" stroke-width="2">
            <g id="全屏" transform="translate(981.000000, 13.000000)">
                <path d="M0,5 L0,2 C-1.3527075e-16,0.8954305 0.8954305,2.02906125e-16 2,0 L5,0 L5,0" id="路径"></path>
                <path d="M0,14 L0,11 C-1.3527075e-16,9.8954305 0.8954305,9 2,9 L5,9 L5,9" id="路径备份-2" transform="translate(2.500000, 11.500000) scale(1, -1) translate(-2.500000, -11.500000) "></path>
                <path d="M9,5 L9,2 C9,0.8954305 9.8954305,2.02906125e-16 11,0 L14,0 L14,0" id="路径备份" transform="translate(11.500000, 2.500000) scale(-1, 1) translate(-11.500000, -2.500000) "></path>
                <path d="M9,14 L9,11 C9,9.8954305 9.8954305,9 11,9 L14,9 L14,9" id="路径备份-3" transform="translate(11.500000, 11.500000) scale(-1, -1) translate(-11.500000, -11.500000) "></path>
            </g>
        </g>
    </g>
</svg>