<?xml version="1.0" encoding="UTF-8"?>
<svg width="24px" height="24px" fill="currentColor" viewBox="0 0 24 24" version="1.1" xmlns="http://www.w3.org/2000/svg" xmlns:xlink="http://www.w3.org/1999/xlink">
    <title>切片</title>
    <g id="组件展示" stroke="none" stroke-width="1" fill="none" fill-rule="evenodd">
        <g id="icon" transform="translate(-76.000000, -782.000000)" fill="#619CC2">
            <g id="icon/返回" transform="translate(76.000000, 782.000000)">
                <g id="返回" transform="translate(12.000000, 12.000000) rotate(90.000000) translate(-12.000000, -12.000000) translate(-0.000000, 0.000000)">
                    <path d="M3.96966991,8.46966991 C4.23001944,8.20932039 4.63415604,8.18039266 4.92645825,8.38288674 L5.03033009,8.46966991 L12,15.4395 L18.9696699,8.46966991 C19.2300194,8.20932039 19.634156,8.18039266 19.9264583,8.38288674 L20.0303301,8.46966991 C20.2906796,8.73001944 20.3196073,9.13415604 20.1171133,9.42645825 L20.0303301,9.53033009 L12.5303301,17.0303301 C12.2699806,17.2906796 11.865844,17.3196073 11.5735417,17.1171133 L11.4696699,17.0303301 L3.96966991,9.53033009 C3.6767767,9.23743687 3.6767767,8.76256313 3.96966991,8.46966991 Z" id="直线-3"></path>
                </g>
            </g>
        </g>
    </g>
</svg>
