<?xml version="1.0" encoding="utf-8"?>
<!-- Generator: Adobe Illustrator 25.1.0, SVG Export Plug-In . SVG Version: 6.00 Build 0)  -->
<svg version="1.1" id="图层_1" fill="currentColor" xmlns="http://www.w3.org/2000/svg" xmlns:xlink="http://www.w3.org/1999/xlink" x="0px" y="0px"
	 viewBox="0 0 18 16" style="enable-background:new 0 0 18 16;" xml:space="preserve">
<style type="text/css">
	.st0{fill-rule:evenodd;clip-rule:evenodd;fill:#619CC2;}
</style>
<path class="st0" d="M16.5,0h-15C1.2,0,1,0.2,1,0.5v15C1,15.8,1.2,16,1.5,16h15c0.3,0,0.5-0.2,0.5-0.5v-15C17,0.2,16.8,0,16.5,0z
	 M10.7,2v3.3H7.3V2H10.7z M10.7,6.3v3.3H7.3V6.3H10.7z M3,2.5C3,2.2,3.2,2,3.5,2h2.8v3.3H3V2.5z M3,6.3h3.3v3.3H3V6.3z M3.5,14
	C3.2,14,3,13.8,3,13.5v-2.8h3.3V14H3.5z M7.3,14v-3.3h3.3V14H7.3z M15,13.5c0,0.3-0.2,0.5-0.5,0.5h-2.8v-3.3H15V13.5z M15,9.7h-3.3
	V6.3H15V9.7z M15,5.3h-3.3V2h2.8C14.8,2,15,2.2,15,2.5V5.3z"/>
</svg>
