<?xml version="1.0" encoding="UTF-8"?>
<svg width="16px" height="16px" fill="currentColor" viewBox="0 0 16 16" version="1.1" xmlns="http://www.w3.org/2000/svg" xmlns:xlink="http://www.w3.org/1999/xlink">
    <title>编组</title>
    <g id="组件展示" stroke="none" stroke-width="1" fill-rule="evenodd">
        <g id="icon_编辑器" transform="translate(-138.000000, -172.000000)" fill-rule="nonzero">
            <g id="编组" transform="translate(138.000000, 172.000000)">
                <path d="M3,16 L0,16 L0,13 L1,13 L1,3 L0,3 L0,0 L3,0 L3,1 L13,1 L13,0 L16,0 L16,3 L15,3 L15,13 L16,13 L16,16 L13,16 L13,15 L3,15 L3,16 Z M13,2 L3,2 L3,3 L2,3 L2,13 L3,13 L3,14 L13,14 L13,13 L14,13 L14,3 L13,3 L13,2 Z M9,4 L9,6 L12,6 L12,12 L6,12 L6,9 L4,9 L4,4 L9,4 Z M11,7 L9,7 L9,9 L7,9 L7,11 L11,11 L11,7 Z" id="形状结合"></path>
            </g>
        </g>
    </g>
</svg>