<?xml version="1.0" encoding="UTF-8"?>
<svg width="16px" height="16px" fill="currentColor" viewBox="0 0 16 16" version="1.1" xmlns="http://www.w3.org/2000/svg" xmlns:xlink="http://www.w3.org/1999/xlink">
    <title>预览</title>
    <g id="组件展示" stroke="none" stroke-width="1" fill-rule="evenodd">
        <g id="icon_编辑器" transform="translate(-114.000000, -341.000000)">
            <g id="预览" transform="translate(114.000000, 341.000000)">
                <path d="M14,0 C15.1045695,-2.02906125e-16 16,0.8954305 16,2 L16,14 C16,15.1045695 15.1045695,16 14,16 L2,16 C0.8954305,16 1.3527075e-16,15.1045695 0,14 L0,2 C-1.3527075e-16,0.8954305 0.8954305,2.02906125e-16 2,0 L14,0 Z M6.5,4.43425855 C6.22385763,4.43425855 6,4.65811617 6,4.93425855 L6,4.93425855 L6,11.0657415 C6,11.1644539 6.02921901,11.2609578 6.08397485,11.3430916 C6.23715108,11.5728559 6.54758575,11.6349428 6.7773501,11.4817666 L6.7773501,11.4817666 L11.3759623,8.41602515 C11.4308884,8.37940772 11.4780199,8.33227624 11.5146373,8.2773501 C11.6678136,8.04758575 11.6057266,7.73715108 11.3759623,7.58397485 L11.3759623,7.58397485 L6.7773501,4.5182334 C6.69521634,4.46347756 6.59871249,4.43425855 6.5,4.43425855 Z" id="形状结合"></path>
            </g>
        </g>
    </g>
</svg>