<?xml version="1.0" encoding="UTF-8"?>
<svg width="16px" height="16px" fill="currentColor" viewBox="0 0 16 16" version="1.1" xmlns="http://www.w3.org/2000/svg" xmlns:xlink="http://www.w3.org/1999/xlink">
    <title>重做</title>
    <g id="组件展示" stroke="none" stroke-width="1" fill-rule="evenodd">
        <g id="icon_编辑器" transform="translate(-106.000000, -173.000000)">
            <g id="重做" transform="translate(106.000000, 173.000000)">
                <path d="M10.2928932,0.292893219 C10.6834175,-0.0976310729 11.3165825,-0.0976310729 11.7071068,0.292893219 L11.7071068,0.292893219 L15.7071068,4.29289322 C15.7355731,4.32135953 15.7623312,4.35153408 15.787214,4.38324992 C15.7910504,4.38807157 15.7918034,4.38904366 15.7925543,4.39001682 C15.8145395,4.41864203 15.8350511,4.4484386 15.8539326,4.47933981 C15.8613931,4.49138689 15.8685012,4.50360556 15.8753288,4.5159379 C15.8862061,4.53570605 15.8966234,4.5561086 15.9063462,4.57690085 C15.914321,4.5939015 15.9218036,4.61120435 15.9287745,4.62866398 C15.9366843,4.6484208 15.9438775,4.66820232 15.9504533,4.68826359 C15.9552713,4.70314866 15.9599023,4.71853672 15.9641549,4.73400703 C15.9701664,4.75556352 15.9753602,4.77725392 15.9798348,4.7992059 C15.9832978,4.81662474 15.9863719,4.83405099 15.9889822,4.85153313 C15.9962388,4.89963791 16,4.94937972 16,5 L15.9962979,4.9137692 C15.9977301,4.93041503 15.9987467,4.94708988 15.9993478,4.96377691 L16,5 C16,5.01122253 15.9998151,5.02240189 15.9994483,5.03353519 C15.9989328,5.04890913 15.9980491,5.06456163 15.9967993,5.08019037 C15.9949469,5.10375822 15.9923379,5.12648196 15.9889807,5.14896122 C15.9863719,5.16594901 15.9832978,5.18337526 15.9797599,5.20072576 C15.9753602,5.22274608 15.9701664,5.24443648 15.964279,5.26583961 C15.9599023,5.28146328 15.9552713,5.29685134 15.9502619,5.31214252 C15.9438775,5.33179768 15.9366843,5.3515792 15.928896,5.37105852 C15.9218036,5.38879565 15.914321,5.4060985 15.9063266,5.42322155 C15.8992089,5.43836216 15.8916975,5.45341517 15.8838236,5.46824638 C15.8744961,5.4859799 15.8645351,5.50346927 15.8540045,5.52070875 C15.8382813,5.54627495 15.8215099,5.57113069 15.8036865,5.5951593 C15.774687,5.63432558 15.7425008,5.67171273 15.7071068,5.70710678 L15.787214,5.61675008 C15.7849289,5.61966276 15.7826279,5.62256244 15.7803112,5.62544899 L15.7071068,5.70710678 L11.7071068,9.70710678 L11.6128994,9.79029539 C11.2206082,10.0953203 10.6533772,10.0675907 10.2928932,9.70710678 L10.2928932,9.70710678 L10.2097046,9.61289944 C9.90467972,9.22060824 9.93240926,8.65337718 10.2928932,8.29289322 L10.2928932,8.29289322 L12.584,6 L6.124,6 L5.9176781,6.00490025 C3.73075177,6.10902707 2,7.85941498 2,9.99090909 L2,9.99090909 L2.00503166,10.2077634 C2.11195895,12.3142028 3.90980746,14 6.124,14 L6.124,14 L8.46666667,14 L8.58328779,14.0067277 C9.08062648,14.0644928 9.46666667,14.4871642 9.46666667,15 C9.46666667,15.5522847 9.01895142,16 8.46666667,16 L8.46666667,16 L6.124,16 L5.8947936,15.9958768 C2.62417866,15.878021 0,13.2483825 0,10.0090909 L0,10.0090909 L0.00423285125,9.76592509 C0.125218044,6.55601817 2.82438789,4 6.124,4 L6.124,4 L12.584,4 L10.2928932,1.70710678 L10.2097046,1.61289944 C9.90467972,1.22060824 9.93240926,0.65337718 10.2928932,0.292893219 Z" id="形状结合"></path>
            </g>
        </g>
    </g>
</svg>