<?xml version="1.0" encoding="UTF-8"?>
<svg width="15px" height="15px" fill="currentColor" viewBox="0 0 15 15" version="1.1" xmlns="http://www.w3.org/2000/svg" xmlns:xlink="http://www.w3.org/1999/xlink">
    <title>标尺</title>
    <g id="组件展示" stroke="none" stroke-width="1" fill-rule="evenodd">
        <g id="icon_编辑器" transform="translate(-138.000000, -305.000000)" fill-rule="nonzero">
            <g id="标尺" transform="translate(138.000000, 305.000000)">
                <path d="M5,0 L5,2 L3,2 L3,3 L5,3 L5,5 L3,5 L3,6 L5,6 L5,8 L3,8 L3,9 L5,9 L5,10 L6,10 L6,12 L7,12 L7,10 L9,10 L9,12 L10,12 L10,10 L12,10 L12,12 L13,12 L13,10 L15,10 L15,15 L0,15 L0,0 L5,0 Z" id="形状结合"></path>
            </g>
        </g>
    </g>
</svg>