<?xml version="1.0" encoding="UTF-8"?>
<svg width="16px" height="16px" fill="currentColor" viewBox="0 0 16 16" version="1.1" xmlns="http://www.w3.org/2000/svg" xmlns:xlink="http://www.w3.org/1999/xlink">
    <title>保存</title>
    <g id="组件展示" stroke="none" stroke-width="1" fill-rule="evenodd">
        <g id="icon_编辑器" transform="translate(-74.000000, -341.000000)">
            <g id="保存" transform="translate(74.000000, 341.000000)">
                <path d="M11.1715729,0 C11.7020059,-9.74389576e-17 12.2107137,0.210713681 12.5857864,0.585786438 L15.4142136,3.41421356 C15.7892863,3.78928632 16,4.29799415 16,4.82842712 L16,15 C16,15.5522847 15.5522847,16 15,16 L1,16 C0.44771525,16 6.76353751e-17,15.5522847 0,15 L0,1 C-6.76353751e-17,0.44771525 0.44771525,1.01453063e-16 1,0 L11.1715729,0 Z M13.3292107,8 L2.66939008,8 C2.24021358,8 2.00081431,8.2583814 2.00081431,8.72218177 L2.00081431,13.270277 C2.00081431,13.3457036 2.0030438,13.4235439 2.01785397,13.4957638 C2.08977089,13.8247618 2.31657355,13.9972861 2.67752771,13.9972861 C4.41933137,14.0012859 6.26193976,13.9996825 8.00078139,13.9996825 L13.3240351,13.9988722 C13.7665248,13.9988722 14,13.7461284 14,13.2686737 L14,8.73661195 C14,8.25836414 13.7642953,8 13.3292107,8 Z M10.2760057,2 L2.72056801,2 C2.23740303,2 2.00114209,2.20914025 2.00114209,2.63688748 C1.9996193,3.83484144 1.9996193,4.16108686 2.00114209,5.35905536 C2.00114209,5.78680259 2.23967902,5.99933108 2.71827566,5.99933108 L6.75738958,6 L10.2729602,6 C10.7629859,6 11,5.79019082 11,5.35363127 L11,2.64500181 C11,2.20575202 10.769077,2 10.2760057,2 Z M9,3.00066332 L9,5 L7.00070029,5 L7.00070029,3 L9,3.00066332 Z" id="形状结合"></path>
            </g>
        </g>
    </g>
</svg>