<?xml version="1.0" encoding="UTF-8"?>
<svg width="12px" height="12px" viewBox="0 0 12 12" version="1.1" xmlns="http://www.w3.org/2000/svg" xmlns:xlink="http://www.w3.org/1999/xlink">
    <title>icon/icon_搜索</title>
    <g id="组件展示" stroke="none" stroke-width="1" fill="none" fill-rule="evenodd">
        <g id="icon" transform="translate(-158.000000, -244.000000)" fill="#619CC2">
            <g id="icon/icon_搜索" transform="translate(156.000000, 242.000000)">
                <path d="M7,2 C9.76142375,2 12,4.23857625 12,7 C12,8.12659589 11.6274006,9.16616654 10.9987094,10.0022044 C11.2155569,9.99967996 11.4326872,10.0695811 11.6128994,10.2097046 L11.7071068,10.2928932 L13.7071068,12.2928932 C14.0976311,12.6834175 14.0976311,13.3165825 13.7071068,13.7071068 C13.3466228,14.0675907 12.7793918,14.0953203 12.3871006,13.7902954 L12.2928932,13.7071068 L10.2928932,11.7071068 C10.0972524,11.511466 9.99962171,11.2549295 10.0000011,10.9985111 C9.16616654,11.6274006 8.12659589,12 7,12 C4.23857625,12 2,9.76142375 2,7 C2,4.23857625 4.23857625,2 7,2 Z M7,3 C4.790861,3 3,4.790861 3,7 C3,9.209139 4.790861,11 7,11 C9.209139,11 11,9.209139 11,7 C11,4.790861 9.209139,3 7,3 Z" id="形状结合"></path>
            </g>
        </g>
    </g>
</svg>