<?xml version="1.0" encoding="UTF-8"?>
<svg width="14px" height="14px" fill="currentColor" viewBox="0 0 14 14" version="1.1" xmlns="http://www.w3.org/2000/svg" xmlns:xlink="http://www.w3.org/1999/xlink">
    <title>设置</title>
    <g id="组件展示" stroke="none" stroke-width="1" fill-rule="evenodd">
        <g id="icon_编辑器" transform="translate(-77.000000, -380.000000)">
            <g id="设置" transform="translate(76.000000, 379.000000)">
                <path d="M13.765625,8 C13.765625,7.18125 14.2796875,6.4875 15,6.2109375 C14.828125,5.5359375 14.5625,4.9 14.215625,4.315625 C13.509375,4.6296875 12.65625,4.5015625 12.078125,3.921875 C11.5,3.34375 11.371875,2.4890625 11.6859375,1.784375 C11.1,1.4375 10.4640625,1.171875 9.7890625,1 C9.5109375,1.7203125 8.8171875,2.234375 8,2.234375 C7.18125,2.234375 6.4875,1.7203125 6.2109375,1 C5.5359375,1.171875 4.9,1.4375 4.315625,1.784375 C4.6296875,2.490625 4.5015625,3.34375 3.9234375,3.921875 C3.3453125,4.5 2.490625,4.628125 1.7859375,4.315625 C1.4375,4.9 1.171875,5.5359375 1,6.2109375 C1.7203125,6.4890625 2.234375,7.1828125 2.234375,8 C2.234375,8.81875 1.7203125,9.5125 1,9.7890625 C1.171875,10.4640625 1.4375,11.1 1.784375,11.684375 C2.490625,11.3703125 3.34375,11.4984375 3.921875,12.078125 C4.5,12.65625 4.628125,13.5109375 4.3140625,14.215625 C4.9,14.5625 5.5359375,14.828125 6.2109375,15 C6.4890625,14.2796875 7.1828125,13.765625 8,13.765625 C8.81875,13.765625 9.5125,14.2796875 9.7890625,15 C10.4640625,14.828125 11.1,14.5625 11.684375,14.215625 C11.3703125,13.509375 11.4984375,12.65625 12.0765625,12.078125 C12.6546875,11.5 13.509375,11.371875 14.2140625,11.684375 C14.5625,11.1 14.828125,10.4640625 15,9.7890625 C14.2796875,9.5125 13.765625,8.81875 13.765625,8 Z M8,10 C6.89593496,10 6,9.10406504 6,8 C6,6.89593496 6.89593496,6 8,6 C9.10406504,6 10,6.89593496 10,8 C10,9.10406504 9.10406504,10 8,10 Z" id="形状"></path>
            </g>
        </g>
    </g>
</svg>