<?xml version="1.0" encoding="UTF-8"?>
<svg width="14px" height="12px" fill="currentColor" viewBox="0 0 14 12" version="1.1" xmlns="http://www.w3.org/2000/svg" xmlns:xlink="http://www.w3.org/1999/xlink">
    <title>转换</title>
    <g id="组件展示" stroke="none" stroke-width="1" fill-rule="evenodd">
        <g id="icon_编辑器" transform="translate(-170.000000, -381.000000)">
            <g id="转换" transform="translate(169.000000, 379.000000)">
                <path d="M1.5,6.5 L14.5,6.5 C14.505,6.5 14.509,6.497 14.514,6.497 C14.6427743,6.49835136 14.7666683,6.44779272 14.8577305,6.35673052 C14.9487927,6.26566832 14.9993514,6.1417743 14.998,6.013 C14.997,6.009 15,6.005 15,6 C14.9980224,5.83182483 14.9101038,5.67636352 14.767,5.588 L11.822,2.643 C11.7007083,2.52170833 11.5239219,2.47433854 11.3582344,2.51873437 C11.1925469,2.5631302 11.0187344,2.66723379 11.0187344,2.85823437 C11.0187344,2.9855681 11.0187344,3.86615664 11.0187344,5.5 L1.5,5.5 C1.22385763,5.5 1,5.72385763 1,6 C1,6.27614237 1.22385763,6.5 1.5,6.5 Z M14.5,9.5 L1.5,9.5 C1.495,9.5 1.491,9.503 1.486,9.503 C1.35706021,9.5010935 1.2328421,9.55147377 1.14165793,9.64265793 C1.05047377,9.7338421 1,9.85806021 1.002,9.987 C1.003,9.991 1,9.995 1,10 C1,10.176 1.096,10.323 1.233,10.412 L4.178,13.357 C4.29929167,13.4782917 4.47607813,13.5256615 4.64176562,13.4812656 C4.80745312,13.4368698 4.98126562,13.271987 4.98126562,13.1417656 C4.98126562,13.0549514 4.98126562,12.1743628 4.98126562,10.5 L14.5,10.5 C14.7761424,10.5 15,10.2761424 15,10 C15,9.72385763 14.7761424,9.5 14.5,9.5 Z" id="形状"></path>
            </g>
        </g>
    </g>
</svg>