<?xml version="1.0" encoding="UTF-8"?>
<svg width="16px" height="16px" fill="currentColor" viewBox="0 0 16 16" version="1.1" xmlns="http://www.w3.org/2000/svg" xmlns:xlink="http://www.w3.org/1999/xlink">
    <title>返回</title>
    <g id="组件展示" stroke="none" stroke-width="1"  fill-rule="evenodd">
        <g id="icon_编辑器" transform="translate(-74.000000, -173.000000)"  fill-rule="nonzero">
            <g id="撤销" transform="translate(74.000000, 173.000000)">
                <path d="M5.70710678,8.29289322 C6.06759074,8.65337718 6.09532028,9.22060824 5.79029539,9.61289944 L5.70710678,9.70710678 C5.34662282,10.0675907 4.77939176,10.0953203 4.38710056,9.79029539 L4.29289322,9.70710678 L0.292893219,5.70710678 L0.219688767,5.62544899 C0.217372104,5.62256244 0.215071126,5.61966276 0.212785965,5.61675008 L0.292893219,5.70710678 C0.257499166,5.67171273 0.225312953,5.63432558 0.196334578,5.59530661 C0.178490093,5.57113069 0.1617187,5.54627495 0.146067433,5.52066019 C0.135464851,5.50346927 0.125503925,5.4859799 0.116112675,5.46826766 C0.108302537,5.45341517 0.100791061,5.43836216 0.0936537803,5.42309915 C0.0856790475,5.4060985 0.0781964242,5.38879565 0.0712254916,5.37133602 C0.0633157362,5.3515792 0.0561224864,5.33179768 0.0495466818,5.31173641 C0.0447287157,5.29685134 0.0400977346,5.28146328 0.0358451423,5.26599297 C0.0298336259,5.24443648 0.0246397952,5.22274608 0.0201651536,5.2007941 C0.0167021706,5.18337526 0.0136280806,5.16594901 0.0110178009,5.14846687 C0.00766212208,5.12648196 0.00505306914,5.10375822 0.00321833099,5.08081615 C0.00158148913,5.05994155 0.000576637985,5.03965284 0.000186147798,5.0193545 C6.12825798e-05,5.01290861 -5.55111512e-17,5.00646146 -5.55111512e-17,5 L0.000167545257,4.98163795 C0.000599315847,4.95798023 0.00186560354,4.93433491 0.00396640833,4.91074993 L-5.55111512e-17,5 C-5.55111512e-17,4.94937972 0.00376118706,4.89963791 0.0110193427,4.85103878 C0.0136280806,4.83405099 0.0167021706,4.81662474 0.020240071,4.79927424 C0.0246397952,4.77725392 0.0298336259,4.75556352 0.0357209664,4.73416039 C0.0400977346,4.71853672 0.0447287157,4.70314866 0.0497380859,4.68785748 C0.0561224864,4.66820232 0.0633157362,4.6484208 0.0711039637,4.62894148 C0.0781964242,4.61120435 0.0856790475,4.5939015 0.0936733617,4.57677845 C0.103376643,4.5561086 0.11379392,4.53570605 0.12487577,4.51572305 C0.131498828,4.50360556 0.138606922,4.49138689 0.145995454,4.47929125 C0.164948855,4.4484386 0.185460463,4.41864203 0.207482683,4.3900697 C0.208196627,4.38904366 0.2089496,4.38807157 0.209704612,4.38710056 C0.237668838,4.35153408 0.264426908,4.32135953 0.292893219,4.29289322 L4.29289322,0.292893219 C4.68341751,-0.0976310729 5.31658249,-0.0976310729 5.70710678,0.292893219 C6.06759074,0.65337718 6.09532028,1.22060824 5.79029539,1.61289944 L5.70710678,1.70710678 L3.415,4 L9.876,4 C13.1756121,4 15.874782,6.55601817 15.9957671,9.76592509 L16,10.0090909 C16,13.2483825 13.3758213,15.878021 10.1052064,15.9958768 L9.876,16 L7.53333333,16 C6.98104858,16 6.53333333,15.5522847 6.53333333,15 C6.53333333,14.4871642 6.91937352,14.0644928 7.41671221,14.0067277 L7.53333333,14 L9.876,14 C12.0901925,14 13.8880411,12.3142028 13.9949683,10.2077634 L14,9.99090909 C14,7.85941498 12.2692482,6.10902707 10.0823219,6.00490025 L9.876,6 L3.415,6 L5.70710678,8.29289322 Z" id="形状结合"></path>
            </g>
        </g>
    </g>
</svg>