<?xml version="1.0" encoding="UTF-8"?>
<svg width="16px" height="16px" fill="currentColor" viewBox="0 0 16 16" version="1.1" xmlns="http://www.w3.org/2000/svg" xmlns:xlink="http://www.w3.org/1999/xlink">
    <title>放大</title>
    <g id="组件展示" stroke="none" stroke-width="1" fill-rule="evenodd">
        <g id="icon_编辑器" transform="translate(-106.000000, -304.000000)">
            <g id="放大" transform="translate(106.000000, 304.000000)">
                <path d="M14,0 C15.1045695,-2.02906125e-16 16,0.8954305 16,2 L16,14 C16,15.1045695 15.1045695,16 14,16 L2,16 C0.8954305,16 1.3527075e-16,15.1045695 0,14 L0,2 C-1.3527075e-16,0.8954305 0.8954305,2.02906125e-16 2,0 L14,0 Z M9,3 L7,3 L7,7 L3,7 L3,9 L7,9 L7,13 L9,13 L9,9 L13,9 L13,7 L9,7 L9,3 Z" id="形状结合"></path>
            </g>
        </g>
    </g>
</svg>